<svg width="307" height="58" viewBox="0 0 307 58" fill="none" xmlns="http://www.w3.org/2000/svg">
<path d="M33.188 5.524L30.68 12.06C29.2613 11.8573 27.7667 11.756 26.196 11.756C22.6493 11.756 19.5587 12.3893 16.924 13.656C14.2893 14.872 12.288 16.4933 10.92 18.52C8.336 22.5227 7.044 26.9053 7.044 31.668C7.044 37.9 8.00667 42.6627 9.932 45.956C11.8573 49.1987 14.1627 50.82 16.848 50.82C20.2933 50.82 23.1813 49.452 25.512 46.716C27.8427 43.98 29.8187 39.7747 31.44 34.1C31.5413 33.6947 31.7187 33.492 31.972 33.492C32.6813 33.492 33.4667 33.8467 34.328 34.556C33.3147 41.4973 30.984 47.0453 27.336 51.2C23.7387 55.3547 19.6853 57.432 15.176 57.432C10.7173 57.432 7.12 55.456 4.384 51.504C1.648 47.552 0.28 42.3333 0.28 35.848C0.28 30.2747 1.724 25.056 4.612 20.192C6.18267 17.5067 8.13333 15.0747 10.464 12.896C12.7947 10.7173 15.8093 8.792 19.508 7.12C23.2067 5.448 27.336 4.25733 31.896 3.548L33.188 5.524ZM67.0294 20.268L63.3814 24.448C66.2187 27.8933 67.6374 32.2253 67.6374 37.444C67.6374 44.7907 65.2814 50.44 60.5694 54.392C58.0867 56.4693 55.0214 57.508 51.3734 57.508C47.776 57.508 44.6854 56.064 42.1014 53.176C39.568 50.288 38.3014 46.3107 38.3014 41.244C38.3014 35.924 40.2774 31.0853 44.2294 26.728C46.3067 24.448 49.22 22.548 52.9694 21.028C56.7694 19.508 61.1774 18.5453 66.1934 18.14L67.0294 20.268ZM52.5134 50.592C55.604 50.592 58.1627 49.2747 60.1894 46.64C62.2667 44.0053 63.3054 41.2693 63.3054 38.432C63.3054 32.3013 61.912 27.564 59.1254 24.22C55.224 24.8787 51.9307 26.6267 49.2454 29.464C46.56 32.3013 45.2174 35.5187 45.2174 39.116C45.2174 42.7133 45.8507 45.5253 47.1174 47.552C48.4347 49.5787 50.2334 50.592 52.5134 50.592ZM103.248 20.268L99.6001 24.448C102.437 27.8933 103.856 32.2253 103.856 37.444C103.856 44.7907 101.5 50.44 96.7881 54.392C94.3055 56.4693 91.2401 57.508 87.5921 57.508C83.9948 57.508 80.9041 56.064 78.3201 53.176C75.7868 50.288 74.5201 46.3107 74.5201 41.244C74.5201 35.924 76.4961 31.0853 80.4481 26.728C82.5255 24.448 85.4388 22.548 89.1881 21.028C92.9881 19.508 97.3961 18.5453 102.412 18.14L103.248 20.268ZM88.7321 50.592C91.8228 50.592 94.3815 49.2747 96.4081 46.64C98.4855 44.0053 99.5241 41.2693 99.5241 38.432C99.5241 32.3013 98.1308 27.564 95.3441 24.22C91.4428 24.8787 88.1495 26.6267 85.4641 29.464C82.7788 32.3013 81.4361 35.5187 81.4361 39.116C81.4361 42.7133 82.0695 45.5253 83.3361 47.552C84.6535 49.5787 86.4521 50.592 88.7321 50.592ZM139.239 20.42L137.263 28.476C136.402 28.2733 135.515 28.172 134.603 28.172C131.715 28.172 128.878 29.4387 126.091 31.972C127.56 36.0253 129.587 40.4333 132.171 45.196C134.806 49.908 137.39 53.6573 139.923 56.444V56.52C139.923 57.0773 139.087 57.356 137.415 57.356C136.959 57.356 136.655 57.3307 136.503 57.28C133.767 54.9493 130.904 51.808 127.915 47.856C124.926 43.8533 122.772 40.56 121.455 37.976L121.379 37.9C119.251 41.548 117.858 45.3987 117.199 49.452L116.895 49.756L115.679 55.152C115.375 55.5067 114.868 55.8107 114.159 56.064C113.5 56.3173 112.994 56.444 112.639 56.444C112.284 56.444 112.107 56.3173 112.107 56.064C114.235 46.1333 115.299 36.3293 115.299 26.652C115.299 16.9747 114.311 8.792 112.335 2.104L114.235 0.887999L120.315 3.776C120.822 7.576 121.075 11.984 121.075 17C121.075 21.9653 120.467 28.476 119.251 36.532C123.862 27.1587 129.866 21.3067 137.263 18.976L139.239 20.42ZM184.17 6.664C182.548 10.7173 181.332 15.86 180.522 22.092C179.711 28.2733 179.306 34.176 179.306 39.8C179.306 45.424 179.559 51.124 180.066 56.9C180.066 57.052 179.838 57.128 179.382 57.128C177.912 57.128 176.95 56.7733 176.494 56.064C167.982 43.5493 161.04 31.3387 155.67 19.432C155.67 32.4027 154.226 44.4867 151.338 55.684C150.932 56.0893 150.324 56.4187 149.514 56.672C148.703 56.976 148.044 57.128 147.538 57.128C147.031 57.128 146.778 57.0267 146.778 56.824L147.082 55.912C148.906 49.2747 149.818 41.4467 149.818 32.428C149.818 28.324 149.564 24.144 149.058 19.888C148.602 15.5813 148.146 12.288 147.69 10.008L146.93 6.664L155.138 3.548L157.114 4.764C159.292 12.3133 161.978 19.6347 165.17 26.728C168.362 33.8213 171.604 39.9773 174.898 45.196C174.239 40.332 173.91 34.5813 173.91 27.944C173.91 21.3067 174.771 13.58 176.494 4.764L178.394 3.548L184.17 6.664ZM221.629 5.524L219.121 12.06C217.703 11.8573 216.208 11.756 214.637 11.756C211.091 11.756 208 12.3893 205.365 13.656C202.731 14.872 200.729 16.4933 199.361 18.52C196.777 22.5227 195.485 26.9053 195.485 31.668C195.485 37.9 196.448 42.6627 198.373 45.956C200.299 49.1987 202.604 50.82 205.289 50.82C208.735 50.82 211.623 49.452 213.953 46.716C216.284 43.98 218.26 39.7747 219.881 34.1C219.983 33.6947 220.16 33.492 220.413 33.492C221.123 33.492 221.908 33.8467 222.769 34.556C221.756 41.4973 219.425 47.0453 215.777 51.2C212.18 55.3547 208.127 57.432 203.617 57.432C199.159 57.432 195.561 55.456 192.825 51.504C190.089 47.552 188.721 42.3333 188.721 35.848C188.721 30.2747 190.165 25.056 193.053 20.192C194.624 17.5067 196.575 15.0747 198.905 12.896C201.236 10.7173 204.251 8.792 207.949 7.12C211.648 5.448 215.777 4.25733 220.337 3.548L221.629 5.524ZM247.643 20.192L253.799 17.532L255.623 18.596C253.951 23.5107 253.115 29.1853 253.115 35.62C253.115 38.356 253.343 42.156 253.799 47.02C254.255 51.884 254.685 55.1773 255.091 56.9C255.091 57.052 254.711 57.128 253.951 57.128C253.191 57.128 252.456 56.7733 251.747 56.064C250.125 52.3147 248.833 46.792 247.871 39.496C245.743 44.5627 243.184 48.692 240.195 51.884C237.256 55.076 234.596 56.672 232.215 56.672C227.655 56.672 225.375 53.8093 225.375 48.084C225.375 44.7907 226.033 41.624 227.351 38.584C228.668 35.544 230.441 32.884 232.671 30.604C237.129 26.0947 242.12 22.624 247.643 20.192ZM236.319 47.552C237.94 47.552 239.739 46.26 241.715 43.676C243.741 41.0413 245.54 37.3427 247.111 32.58C247.06 31.8707 247.035 30.5027 247.035 28.476C247.035 26.4493 247.06 24.9547 247.111 23.992C242.753 26.4747 239.232 29.1347 236.547 31.972C233.861 34.7587 232.519 38.052 232.519 41.852C232.519 45.652 233.785 47.552 236.319 47.552ZM266.318 0.887999L272.398 3.776C272.955 7.52533 273.234 11.604 273.234 16.012C273.234 20.3693 272.981 25.0307 272.474 29.996C271.41 40.028 269.89 48.7173 267.914 56.064C267.61 56.4187 267.078 56.7227 266.318 56.976C265.558 57.2293 264.95 57.356 264.494 57.356C264.038 57.356 263.81 57.2293 263.81 56.976C266.191 46.8427 267.382 36.836 267.382 26.956C267.382 17.076 266.394 8.792 264.418 2.104L266.318 0.887999ZM306.46 38.508C305.244 43.6253 303.116 47.932 300.076 51.428C297.087 54.924 293.996 56.672 290.804 56.672C287.612 56.672 285.13 55.532 283.356 53.252C281.634 50.972 280.772 47.9067 280.772 44.056C280.772 39.6987 281.76 35.5947 283.736 31.744C284.851 29.5653 286.27 27.5893 287.992 25.816C289.715 24.0427 291.995 22.396 294.832 20.876C297.72 19.3053 301.014 18.064 304.712 17.152L306.384 18.596L303.952 25.36C302.28 24.7013 300.659 24.372 299.088 24.372C295.491 24.372 292.628 25.968 290.5 29.16C288.372 32.352 287.308 36.0253 287.308 40.18C287.308 43.0173 287.891 45.2213 289.056 46.792C290.222 48.3627 291.64 49.148 293.312 49.148C297.112 49.148 300.532 45.3987 303.572 37.9C303.623 37.596 303.851 37.444 304.256 37.444C304.712 37.444 305.447 37.7987 306.46 38.508Z" fill="#274341"/>
</svg>
